<svg width="20" height="19" viewBox="0 0 20 19" fill="none" xmlns="http://www.w3.org/2000/svg">
<path d="M1 0.217773H19C19.2652 0.217773 19.5196 0.32313 19.7071 0.510667C19.8946 0.698203 20 0.952557 20 1.21777V17.2178C20 17.483 19.8946 17.7373 19.7071 17.9249C19.5196 18.1124 19.2652 18.2178 19 18.2178H1C0.734784 18.2178 0.48043 18.1124 0.292893 17.9249C0.105357 17.7373 0 17.483 0 17.2178V1.21777C0 0.952557 0.105357 0.698203 0.292893 0.510667C0.48043 0.32313 0.734784 0.217773 1 0.217773ZM10.06 8.90077L3.648 3.45577L2.353 4.97977L10.073 11.5348L17.654 4.97477L16.346 3.46177L10.061 8.90077H10.06Z" fill="white"/>
</svg>
