<svg width="18" height="19" viewBox="0 0 18 19" fill="none" xmlns="http://www.w3.org/2000/svg">
<path d="M18 13.6378V17.1738C18.0001 17.427 17.9042 17.6707 17.7316 17.856C17.559 18.0412 17.3226 18.1541 17.07 18.1718C16.633 18.2018 16.276 18.2178 16 18.2178C7.163 18.2178 0 11.0548 0 2.21777C0 1.94177 0.015 1.58477 0.046 1.14777C0.0637224 0.895217 0.176581 0.658784 0.361804 0.486182C0.547026 0.31358 0.790823 0.217659 1.044 0.217774H4.58C4.70404 0.217648 4.8237 0.263632 4.91573 0.346794C5.00776 0.429955 5.0656 0.544356 5.078 0.667774C5.101 0.897774 5.122 1.08077 5.142 1.21977C5.34073 2.6067 5.748 3.95561 6.35 5.22077C6.445 5.42077 6.383 5.65977 6.203 5.78777L4.045 7.32977C5.36445 10.4042 7.81455 12.8543 10.889 14.1738L12.429 12.0198C12.4919 11.9318 12.5838 11.8687 12.6885 11.8414C12.7932 11.8142 12.9042 11.8246 13.002 11.8708C14.267 12.4716 15.6156 12.8779 17.002 13.0758C17.141 13.0958 17.324 13.1178 17.552 13.1398C17.6752 13.1524 17.7894 13.2103 17.8724 13.3024C17.9553 13.3944 18.0012 13.5139 18.001 13.6378H18Z" fill="white"/>
</svg>
