<svg width="30" height="35" viewBox="0 0 30 35" fill="none" xmlns="http://www.w3.org/2000/svg">
<path d="M1.66667 0.333374H28.3333C28.7754 0.333374 29.1993 0.508969 29.5118 0.821529C29.8244 1.13409 30 1.55801 30 2.00004V34.1267C30.0001 34.2658 29.9655 34.4026 29.8992 34.5249C29.8329 34.6471 29.737 34.7508 29.6204 34.8265C29.5038 34.9022 29.37 34.9476 29.2314 34.9584C29.0928 34.9692 28.9536 34.9451 28.8267 34.8884L15 28.7167L1.17333 34.8867C1.0465 34.9434 0.907519 34.9675 0.769017 34.9567C0.630514 34.946 0.496889 34.9008 0.380294 34.8253C0.263699 34.7498 0.167834 34.6463 0.101416 34.5243C0.0349986 34.4023 0.000136376 34.2656 0 34.1267V2.00004C0 1.55801 0.175595 1.13409 0.488155 0.821529C0.800716 0.508969 1.22464 0.333374 1.66667 0.333374ZM15 19.5L19.8983 22.075L18.9633 16.6217L22.925 12.7584L17.4483 11.9617L15 7.00004L12.55 11.9617L7.075 12.7584L11.0367 16.6217L10.1033 22.075L15 19.5Z" fill="white"/>
</svg>
