<svg width="50" height="50" viewBox="0 0 50 50" fill="none" xmlns="http://www.w3.org/2000/svg">
<path d="M25 22.3522C28.3152 22.3522 31.4946 23.6588 33.8388 25.9845C36.183 28.3103 37.5 31.4647 37.5 34.7538V49.6357H32.5V34.7538C32.5001 32.8558 31.7692 31.0296 30.4568 29.6487C29.1444 28.2677 27.3497 27.4366 25.44 27.3252L25 27.3128C23.087 27.3127 21.2462 28.0379 19.8544 29.34C18.4625 30.642 17.6247 32.4226 17.5125 34.3173L17.5 34.7538V49.6357H12.5V34.7538C12.5 31.4647 13.817 28.3103 16.1612 25.9845C18.5054 23.6588 21.6848 22.3522 25 22.3522ZM8.75 29.7932C9.4475 29.7932 10.125 29.875 10.775 30.0263C10.3476 31.2888 10.0944 32.6029 10.0225 33.9328L10 34.7538V34.9671C9.71264 34.8651 9.41373 34.7985 9.11 34.7687L8.75 34.7538C7.81779 34.7539 6.91902 35.0984 6.22895 35.7202C5.53888 36.342 5.10699 37.1965 5.0175 38.1171L5 38.4743V49.6357H0V38.4743C0 36.1719 0.921872 33.9638 2.56282 32.3358C4.20376 30.7078 6.42936 29.7932 8.75 29.7932ZM41.25 29.7932C43.5707 29.7932 45.7963 30.7078 47.4372 32.3358C49.0781 33.9638 50 36.1719 50 38.4743V49.6357H45V38.4743C45 37.5494 44.6527 36.6577 44.026 35.9731C43.3992 35.2885 42.5379 34.86 41.61 34.7712L41.25 34.7538C40.8125 34.7538 40.3925 34.8282 40 34.9646V34.7538C40 33.1019 39.73 31.5145 39.2275 30.0313C39.875 29.875 40.5525 29.7932 41.25 29.7932ZM8.75 14.9112C10.4076 14.9112 11.9973 15.5645 13.1694 16.7274C14.3415 17.8903 15 19.4675 15 21.112C15 22.7566 14.3415 24.3338 13.1694 25.4967C11.9973 26.6595 10.4076 27.3128 8.75 27.3128C7.0924 27.3128 5.50269 26.6595 4.33058 25.4967C3.15848 24.3338 2.5 22.7566 2.5 21.112C2.5 19.4675 3.15848 17.8903 4.33058 16.7274C5.50269 15.5645 7.0924 14.9112 8.75 14.9112ZM41.25 14.9112C42.9076 14.9112 44.4973 15.5645 45.6694 16.7274C46.8415 17.8903 47.5 19.4675 47.5 21.112C47.5 22.7566 46.8415 24.3338 45.6694 25.4967C44.4973 26.6595 42.9076 27.3128 41.25 27.3128C39.5924 27.3128 38.0027 26.6595 36.8306 25.4967C35.6585 24.3338 35 22.7566 35 21.112C35 19.4675 35.6585 17.8903 36.8306 16.7274C38.0027 15.5645 39.5924 14.9112 41.25 14.9112ZM8.75 19.8719C8.41848 19.8719 8.10054 20.0025 7.86612 20.2351C7.6317 20.4677 7.5 20.7831 7.5 21.112C7.5 21.4409 7.6317 21.7564 7.86612 21.989C8.10054 22.2215 8.41848 22.3522 8.75 22.3522C9.08152 22.3522 9.39946 22.2215 9.63389 21.989C9.86831 21.7564 10 21.4409 10 21.112C10 20.7831 9.86831 20.4677 9.63389 20.2351C9.39946 20.0025 9.08152 19.8719 8.75 19.8719ZM41.25 19.8719C40.9185 19.8719 40.6005 20.0025 40.3661 20.2351C40.1317 20.4677 40 20.7831 40 21.112C40 21.4409 40.1317 21.7564 40.3661 21.989C40.6005 22.2215 40.9185 22.3522 41.25 22.3522C41.5815 22.3522 41.8995 22.2215 42.1339 21.989C42.3683 21.7564 42.5 21.4409 42.5 21.112C42.5 20.7831 42.3683 20.4677 42.1339 20.2351C41.8995 20.0025 41.5815 19.8719 41.25 19.8719ZM25 0.0292969C27.6522 0.0292969 30.1957 1.07457 32.0711 2.93518C33.9464 4.79578 35 7.3193 35 9.95059C35 12.5819 33.9464 15.1054 32.0711 16.966C30.1957 18.8266 27.6522 19.8719 25 19.8719C22.3478 19.8719 19.8043 18.8266 17.9289 16.966C16.0536 15.1054 15 12.5819 15 9.95059C15 7.3193 16.0536 4.79578 17.9289 2.93518C19.8043 1.07457 22.3478 0.0292969 25 0.0292969ZM25 4.98994C23.6739 4.98994 22.4022 5.51258 21.4645 6.44288C20.5268 7.37318 20 8.63494 20 9.95059C20 11.2662 20.5268 12.528 21.4645 13.4583C22.4022 14.3886 23.6739 14.9112 25 14.9112C26.3261 14.9112 27.5979 14.3886 28.5355 13.4583C29.4732 12.528 30 11.2662 30 9.95059C30 8.63494 29.4732 7.37318 28.5355 6.44288C27.5979 5.51258 26.3261 4.98994 25 4.98994Z" fill="white"/>
</svg>
