<svg width="53" height="53" viewBox="0 0 53 53" fill="none" xmlns="http://www.w3.org/2000/svg">
<path d="M0 53C0 47.6957 2.10714 42.6086 5.85786 38.8579C9.60859 35.1071 14.6957 33 20 33C25.3043 33 30.3914 35.1071 34.1421 38.8579C37.8929 42.6086 40 47.6957 40 53H35C35 49.0218 33.4196 45.2064 30.6066 42.3934C27.7936 39.5803 23.9782 38 20 38C16.0218 38 12.2064 39.5803 9.3934 42.3934C6.58035 45.2064 5 49.0218 5 53H0ZM20 30.5C11.7125 30.5 5 23.7875 5 15.5C5 7.2125 11.7125 0.5 20 0.5C28.2875 0.5 35 7.2125 35 15.5C35 23.7875 28.2875 30.5 20 30.5ZM20 25.5C25.525 25.5 30 21.025 30 15.5C30 9.975 25.525 5.5 20 5.5C14.475 5.5 10 9.975 10 15.5C10 21.025 14.475 25.5 20 25.5ZM40.71 34.7575C44.2233 36.3398 47.2049 38.9031 49.2965 42.1393C51.388 45.3755 52.5004 49.1468 52.5 53H47.5C47.5006 50.11 46.6664 47.2812 45.0977 44.854C43.5291 42.4267 41.2927 40.5042 38.6575 39.3175L40.7075 34.7575H40.71ZM38.99 6.5325C41.5088 7.57074 43.6624 9.33384 45.1775 11.5981C46.6927 13.8623 47.501 16.5256 47.5 19.25C47.5011 22.6808 46.2192 25.9881 43.9064 28.5221C41.5935 31.0561 38.4167 32.6337 35 32.945V27.9125C36.8524 27.6472 38.5709 26.795 39.9033 25.4811C41.2357 24.1672 42.1117 22.4608 42.4029 20.6123C42.694 18.7639 42.3849 16.8707 41.521 15.2109C40.657 13.551 39.2836 12.2119 37.6025 11.39L38.99 6.5325Z" fill="white"/>
</svg>
