<svg width="51" height="35" viewBox="0 0 51 35" fill="none" xmlns="http://www.w3.org/2000/svg">
<path d="M11.344 2.656C13.888 2.656 16.168 3.496 18.184 5.176C20.152 6.856 21.856 9.04 23.296 11.728C25.216 8.416 27.28 5.752 29.488 3.736C31.696 1.72 34.288 0.712 37.264 0.712C41.776 0.712 45.136 2.248 47.344 5.32C49.504 8.392 50.584 12.472 50.584 17.56C50.584 22.504 49.48 26.536 47.272 29.656C45.016 32.776 41.704 34.336 37.336 34.336C34.6 34.336 32.08 33.4 29.776 31.528C27.472 29.608 25.648 27.208 24.304 24.328C22.384 26.968 20.488 29.032 18.616 30.52C16.696 32.008 14.512 32.752 12.064 32.752C8.176 32.752 5.2 31.312 3.136 28.432C1.072 25.552 0.0399997 21.904 0.0399997 17.488C0.0399998 13.12 0.975999 9.568 2.848 6.832C4.72 4.048 7.552 2.656 11.344 2.656ZM11.344 23.32C13.12 23.32 14.728 22.672 16.168 21.376C17.56 20.08 19.048 18.232 20.632 15.832C19.528 14.392 18.184 13.288 16.6 12.52C14.968 11.704 13.216 11.296 11.344 11.296C9.472 11.296 7.96 11.872 6.808 13.024C5.656 14.176 5.08 15.664 5.08 17.488C5.08 19.312 5.656 20.752 6.808 21.808C7.912 22.816 9.424 23.32 11.344 23.32ZM38.056 10.144C36.616 10.144 35.272 10.6 34.024 11.512C32.776 12.424 31.672 13.528 30.712 14.824C29.752 16.12 28.528 17.968 27.04 20.368C28.336 21.856 29.896 23.032 31.72 23.896C33.544 24.76 35.416 25.192 37.336 25.192C39.88 25.192 41.896 24.544 43.384 23.248C44.824 21.904 45.544 20.008 45.544 17.56C45.544 15.16 44.896 13.336 43.6 12.088C42.304 10.792 40.456 10.144 38.056 10.144Z" fill="white"/>
</svg>
