<svg width="26" height="26" viewBox="0 0 26 26" fill="none" xmlns="http://www.w3.org/2000/svg">
<path d="M13 0.500015C19.9 0.500015 25.5 6.10002 25.5 13C25.5 19.9 19.9 25.5 13 25.5C6.1 25.5 0.5 19.9 0.5 13C0.5 6.10002 6.1 0.500015 13 0.500015ZM5.52875 17.27C7.36375 20.0075 10.1187 21.75 13.2 21.75C16.28 21.75 19.0362 20.0088 20.87 17.27C18.7897 15.3258 16.0474 14.246 13.2 14.25C10.3521 14.2457 7.60939 15.3255 5.52875 17.27ZM13 11.75C13.9946 11.75 14.9484 11.3549 15.6517 10.6517C16.3549 9.9484 16.75 8.99458 16.75 8.00002C16.75 7.00545 16.3549 6.05163 15.6517 5.34836C14.9484 4.6451 13.9946 4.25002 13 4.25002C12.0054 4.25002 11.0516 4.6451 10.3483 5.34836C9.64509 6.05163 9.25 7.00545 9.25 8.00002C9.25 8.99458 9.64509 9.9484 10.3483 10.6517C11.0516 11.3549 12.0054 11.75 13 11.75Z" fill="#09121F"/>
</svg>
